<svg xmlns="http://www.w3.org/2000/svg" width="20" height="20" viewBox="0 0 20 20">
  <g fill="#3D3D40" fill-rule="evenodd">
    <path d="M5.4999,5.4006 L5.4999,3.4006 L5.4999,1.5006 C5.4999,0.9476 5.0529,0.5006 4.4999,0.5006 C3.9479,0.5006 3.4999,0.9476 3.4999,1.5006 L3.4999,3.4006 L0.9999,3.4006 C0.4479,3.4006 -0.0001,3.8486 -0.0001,4.4006 C-0.0001,4.9526 0.4479,5.4006 0.9999,5.4006 L3.4999,5.4006 L3.4999,16.0006 C3.4999,16.5516 3.9479,17.0006 4.4999,17.0006 C4.5149,17.0006 4.5249,16.9926 4.5399,16.9926 L13.4999,16.9926 L13.4999,14.9926 L5.4999,14.9926 L5.4999,5.4006 Z"/>
    <path d="M18.9999,14.9924 L16.4999,14.9924 L16.4999,4.4004 C16.4999,3.8484 16.0529,3.4004 15.4999,3.4004 L6.4999,3.4004 L6.4999,5.4004 L14.4999,5.4004 L14.4999,14.9924 L14.4999,16.9924 L14.4999,18.9004 C14.4999,19.4534 14.9479,19.9004 15.4999,19.9004 C16.0529,19.9004 16.4999,19.4534 16.4999,18.9004 L16.4999,16.9924 L18.9999,16.9924 C19.5529,16.9924 19.9999,16.5444 19.9999,15.9924 C19.9999,15.4394 19.5529,14.9924 18.9999,14.9924"/>
  </g>
</svg>
